<?xml version="1.0" encoding="utf-8" standalone="no"?>
<!DOCTYPE svg PUBLIC "-//W3C//DTD SVG 1.1//EN"
  "http://www.w3.org/Graphics/SVG/1.1/DTD/svg11.dtd">
<svg height="288pt" version="1.1" viewBox="0 0 432 288" width="432pt" xmlns="http://www.w3.org/2000/svg" xmlns:xlink="http://www.w3.org/1999/xlink">
 <metadata>
  <rdf:RDF xmlns:cc="http://creativecommons.org/ns#" xmlns:dc="http://purl.org/dc/elements/1.1/" xmlns:rdf="http://www.w3.org/1999/02/22-rdf-syntax-ns#">
   <cc:Work>
    <dc:type rdf:resource="http://purl.org/dc/dcmitype/StillImage"/>
    <dc:date>2022-06-13T19:11:29.596266</dc:date>
    <dc:format>image/svg+xml</dc:format>
    <dc:creator>
     <cc:Agent>
      <dc:title>Matplotlib v3.4.3, https://matplotlib.org/</dc:title>
     </cc:Agent>
    </dc:creator>
   </cc:Work>
  </rdf:RDF>
 </metadata>
 <defs>
  <style type="text/css">*{stroke-linecap:butt;stroke-linejoin:round;}</style>
 </defs>
 <g id="figure_1">
  <g id="patch_1">
   <path d="M 0 288 
L 432 288 
L 432 0 
L 0 0 
z
" style="fill:none;"/>
  </g>
  <g id="axes_1">
   <g id="patch_2">
    <path d="M 50.675 246.2 
L 411.7625 246.2 
L 411.7625 26.8 
L 50.675 26.8 
z
" style="fill:#ffffff;"/>
   </g>
   <g id="matplotlib.axis_1">
    <g id="xtick_1">
     <g id="line2d_1">
      <path clip-path="url(#p34049b9568)" d="M 50.675 246.2 
L 50.675 26.8 
" style="fill:none;stroke:#b0b0b0;stroke-linecap:square;stroke-width:0.8;"/>
     </g>
     <g id="line2d_2">
      <defs>
       <path d="M 0 0 
L 0 3.5 
" id="mb8d0ec8e77" style="stroke:#000000;stroke-width:0.8;"/>
      </defs>
      <g>
       <use style="stroke:#000000;stroke-width:0.8;" x="50.675" xlink:href="#mb8d0ec8e77" y="246.2"/>
      </g>
     </g>
     <g id="text_1">
      <!-- 0 -->
      <g transform="translate(47.49375 260.798437)scale(0.1 -0.1)">
       <defs>
        <path d="M 2034 4250 
Q 1547 4250 1301 3770 
Q 1056 3291 1056 2328 
Q 1056 1369 1301 889 
Q 1547 409 2034 409 
Q 2525 409 2770 889 
Q 3016 1369 3016 2328 
Q 3016 3291 2770 3770 
Q 2525 4250 2034 4250 
z
M 2034 4750 
Q 2819 4750 3233 4129 
Q 3647 3509 3647 2328 
Q 3647 1150 3233 529 
Q 2819 -91 2034 -91 
Q 1250 -91 836 529 
Q 422 1150 422 2328 
Q 422 3509 836 4129 
Q 1250 4750 2034 4750 
z
" id="DejaVuSans-30" transform="scale(0.015625)"/>
       </defs>
       <use xlink:href="#DejaVuSans-30"/>
      </g>
     </g>
    </g>
    <g id="xtick_2">
     <g id="line2d_3">
      <path clip-path="url(#p34049b9568)" d="M 95.810938 246.2 
L 95.810938 26.8 
" style="fill:none;stroke:#b0b0b0;stroke-linecap:square;stroke-width:0.8;"/>
     </g>
     <g id="line2d_4">
      <g>
       <use style="stroke:#000000;stroke-width:0.8;" x="95.810938" xlink:href="#mb8d0ec8e77" y="246.2"/>
      </g>
     </g>
     <g id="text_2">
      <!-- 25 -->
      <g transform="translate(89.448438 260.798437)scale(0.1 -0.1)">
       <defs>
        <path d="M 1228 531 
L 3431 531 
L 3431 0 
L 469 0 
L 469 531 
Q 828 903 1448 1529 
Q 2069 2156 2228 2338 
Q 2531 2678 2651 2914 
Q 2772 3150 2772 3378 
Q 2772 3750 2511 3984 
Q 2250 4219 1831 4219 
Q 1534 4219 1204 4116 
Q 875 4013 500 3803 
L 500 4441 
Q 881 4594 1212 4672 
Q 1544 4750 1819 4750 
Q 2544 4750 2975 4387 
Q 3406 4025 3406 3419 
Q 3406 3131 3298 2873 
Q 3191 2616 2906 2266 
Q 2828 2175 2409 1742 
Q 1991 1309 1228 531 
z
" id="DejaVuSans-32" transform="scale(0.015625)"/>
        <path d="M 691 4666 
L 3169 4666 
L 3169 4134 
L 1269 4134 
L 1269 2991 
Q 1406 3038 1543 3061 
Q 1681 3084 1819 3084 
Q 2600 3084 3056 2656 
Q 3513 2228 3513 1497 
Q 3513 744 3044 326 
Q 2575 -91 1722 -91 
Q 1428 -91 1123 -41 
Q 819 9 494 109 
L 494 744 
Q 775 591 1075 516 
Q 1375 441 1709 441 
Q 2250 441 2565 725 
Q 2881 1009 2881 1497 
Q 2881 1984 2565 2268 
Q 2250 2553 1709 2553 
Q 1456 2553 1204 2497 
Q 953 2441 691 2322 
L 691 4666 
z
" id="DejaVuSans-35" transform="scale(0.015625)"/>
       </defs>
       <use xlink:href="#DejaVuSans-32"/>
       <use x="63.623047" xlink:href="#DejaVuSans-35"/>
      </g>
     </g>
    </g>
    <g id="xtick_3">
     <g id="line2d_5">
      <path clip-path="url(#p34049b9568)" d="M 140.946875 246.2 
L 140.946875 26.8 
" style="fill:none;stroke:#b0b0b0;stroke-linecap:square;stroke-width:0.8;"/>
     </g>
     <g id="line2d_6">
      <g>
       <use style="stroke:#000000;stroke-width:0.8;" x="140.946875" xlink:href="#mb8d0ec8e77" y="246.2"/>
      </g>
     </g>
     <g id="text_3">
      <!-- 50 -->
      <g transform="translate(134.584375 260.798437)scale(0.1 -0.1)">
       <use xlink:href="#DejaVuSans-35"/>
       <use x="63.623047" xlink:href="#DejaVuSans-30"/>
      </g>
     </g>
    </g>
    <g id="xtick_4">
     <g id="line2d_7">
      <path clip-path="url(#p34049b9568)" d="M 186.082813 246.2 
L 186.082813 26.8 
" style="fill:none;stroke:#b0b0b0;stroke-linecap:square;stroke-width:0.8;"/>
     </g>
     <g id="line2d_8">
      <g>
       <use style="stroke:#000000;stroke-width:0.8;" x="186.082813" xlink:href="#mb8d0ec8e77" y="246.2"/>
      </g>
     </g>
     <g id="text_4">
      <!-- 75 -->
      <g transform="translate(179.720313 260.798437)scale(0.1 -0.1)">
       <defs>
        <path d="M 525 4666 
L 3525 4666 
L 3525 4397 
L 1831 0 
L 1172 0 
L 2766 4134 
L 525 4134 
L 525 4666 
z
" id="DejaVuSans-37" transform="scale(0.015625)"/>
       </defs>
       <use xlink:href="#DejaVuSans-37"/>
       <use x="63.623047" xlink:href="#DejaVuSans-35"/>
      </g>
     </g>
    </g>
    <g id="xtick_5">
     <g id="line2d_9">
      <path clip-path="url(#p34049b9568)" d="M 231.21875 246.2 
L 231.21875 26.8 
" style="fill:none;stroke:#b0b0b0;stroke-linecap:square;stroke-width:0.8;"/>
     </g>
     <g id="line2d_10">
      <g>
       <use style="stroke:#000000;stroke-width:0.8;" x="231.21875" xlink:href="#mb8d0ec8e77" y="246.2"/>
      </g>
     </g>
     <g id="text_5">
      <!-- 100 -->
      <g transform="translate(221.675 260.798437)scale(0.1 -0.1)">
       <defs>
        <path d="M 794 531 
L 1825 531 
L 1825 4091 
L 703 3866 
L 703 4441 
L 1819 4666 
L 2450 4666 
L 2450 531 
L 3481 531 
L 3481 0 
L 794 0 
L 794 531 
z
" id="DejaVuSans-31" transform="scale(0.015625)"/>
       </defs>
       <use xlink:href="#DejaVuSans-31"/>
       <use x="63.623047" xlink:href="#DejaVuSans-30"/>
       <use x="127.246094" xlink:href="#DejaVuSans-30"/>
      </g>
     </g>
    </g>
    <g id="xtick_6">
     <g id="line2d_11">
      <path clip-path="url(#p34049b9568)" d="M 276.354688 246.2 
L 276.354688 26.8 
" style="fill:none;stroke:#b0b0b0;stroke-linecap:square;stroke-width:0.8;"/>
     </g>
     <g id="line2d_12">
      <g>
       <use style="stroke:#000000;stroke-width:0.8;" x="276.354688" xlink:href="#mb8d0ec8e77" y="246.2"/>
      </g>
     </g>
     <g id="text_6">
      <!-- 125 -->
      <g transform="translate(266.810938 260.798437)scale(0.1 -0.1)">
       <use xlink:href="#DejaVuSans-31"/>
       <use x="63.623047" xlink:href="#DejaVuSans-32"/>
       <use x="127.246094" xlink:href="#DejaVuSans-35"/>
      </g>
     </g>
    </g>
    <g id="xtick_7">
     <g id="line2d_13">
      <path clip-path="url(#p34049b9568)" d="M 321.490625 246.2 
L 321.490625 26.8 
" style="fill:none;stroke:#b0b0b0;stroke-linecap:square;stroke-width:0.8;"/>
     </g>
     <g id="line2d_14">
      <g>
       <use style="stroke:#000000;stroke-width:0.8;" x="321.490625" xlink:href="#mb8d0ec8e77" y="246.2"/>
      </g>
     </g>
     <g id="text_7">
      <!-- 150 -->
      <g transform="translate(311.946875 260.798437)scale(0.1 -0.1)">
       <use xlink:href="#DejaVuSans-31"/>
       <use x="63.623047" xlink:href="#DejaVuSans-35"/>
       <use x="127.246094" xlink:href="#DejaVuSans-30"/>
      </g>
     </g>
    </g>
    <g id="xtick_8">
     <g id="line2d_15">
      <path clip-path="url(#p34049b9568)" d="M 366.626563 246.2 
L 366.626563 26.8 
" style="fill:none;stroke:#b0b0b0;stroke-linecap:square;stroke-width:0.8;"/>
     </g>
     <g id="line2d_16">
      <g>
       <use style="stroke:#000000;stroke-width:0.8;" x="366.626563" xlink:href="#mb8d0ec8e77" y="246.2"/>
      </g>
     </g>
     <g id="text_8">
      <!-- 175 -->
      <g transform="translate(357.082813 260.798437)scale(0.1 -0.1)">
       <use xlink:href="#DejaVuSans-31"/>
       <use x="63.623047" xlink:href="#DejaVuSans-37"/>
       <use x="127.246094" xlink:href="#DejaVuSans-35"/>
      </g>
     </g>
    </g>
    <g id="xtick_9">
     <g id="line2d_17">
      <path clip-path="url(#p34049b9568)" d="M 411.7625 246.2 
L 411.7625 26.8 
" style="fill:none;stroke:#b0b0b0;stroke-linecap:square;stroke-width:0.8;"/>
     </g>
     <g id="line2d_18">
      <g>
       <use style="stroke:#000000;stroke-width:0.8;" x="411.7625" xlink:href="#mb8d0ec8e77" y="246.2"/>
      </g>
     </g>
     <g id="text_9">
      <!-- 200 -->
      <g transform="translate(402.21875 260.798437)scale(0.1 -0.1)">
       <use xlink:href="#DejaVuSans-32"/>
       <use x="63.623047" xlink:href="#DejaVuSans-30"/>
       <use x="127.246094" xlink:href="#DejaVuSans-30"/>
      </g>
     </g>
    </g>
    <g id="text_10">
     <!-- Epochs -->
     <g transform="translate(213.303125 274.476562)scale(0.1 -0.1)">
      <defs>
       <path d="M 628 4666 
L 3578 4666 
L 3578 4134 
L 1259 4134 
L 1259 2753 
L 3481 2753 
L 3481 2222 
L 1259 2222 
L 1259 531 
L 3634 531 
L 3634 0 
L 628 0 
L 628 4666 
z
" id="DejaVuSans-45" transform="scale(0.015625)"/>
       <path d="M 1159 525 
L 1159 -1331 
L 581 -1331 
L 581 3500 
L 1159 3500 
L 1159 2969 
Q 1341 3281 1617 3432 
Q 1894 3584 2278 3584 
Q 2916 3584 3314 3078 
Q 3713 2572 3713 1747 
Q 3713 922 3314 415 
Q 2916 -91 2278 -91 
Q 1894 -91 1617 61 
Q 1341 213 1159 525 
z
M 3116 1747 
Q 3116 2381 2855 2742 
Q 2594 3103 2138 3103 
Q 1681 3103 1420 2742 
Q 1159 2381 1159 1747 
Q 1159 1113 1420 752 
Q 1681 391 2138 391 
Q 2594 391 2855 752 
Q 3116 1113 3116 1747 
z
" id="DejaVuSans-70" transform="scale(0.015625)"/>
       <path d="M 1959 3097 
Q 1497 3097 1228 2736 
Q 959 2375 959 1747 
Q 959 1119 1226 758 
Q 1494 397 1959 397 
Q 2419 397 2687 759 
Q 2956 1122 2956 1747 
Q 2956 2369 2687 2733 
Q 2419 3097 1959 3097 
z
M 1959 3584 
Q 2709 3584 3137 3096 
Q 3566 2609 3566 1747 
Q 3566 888 3137 398 
Q 2709 -91 1959 -91 
Q 1206 -91 779 398 
Q 353 888 353 1747 
Q 353 2609 779 3096 
Q 1206 3584 1959 3584 
z
" id="DejaVuSans-6f" transform="scale(0.015625)"/>
       <path d="M 3122 3366 
L 3122 2828 
Q 2878 2963 2633 3030 
Q 2388 3097 2138 3097 
Q 1578 3097 1268 2742 
Q 959 2388 959 1747 
Q 959 1106 1268 751 
Q 1578 397 2138 397 
Q 2388 397 2633 464 
Q 2878 531 3122 666 
L 3122 134 
Q 2881 22 2623 -34 
Q 2366 -91 2075 -91 
Q 1284 -91 818 406 
Q 353 903 353 1747 
Q 353 2603 823 3093 
Q 1294 3584 2113 3584 
Q 2378 3584 2631 3529 
Q 2884 3475 3122 3366 
z
" id="DejaVuSans-63" transform="scale(0.015625)"/>
       <path d="M 3513 2113 
L 3513 0 
L 2938 0 
L 2938 2094 
Q 2938 2591 2744 2837 
Q 2550 3084 2163 3084 
Q 1697 3084 1428 2787 
Q 1159 2491 1159 1978 
L 1159 0 
L 581 0 
L 581 4863 
L 1159 4863 
L 1159 2956 
Q 1366 3272 1645 3428 
Q 1925 3584 2291 3584 
Q 2894 3584 3203 3211 
Q 3513 2838 3513 2113 
z
" id="DejaVuSans-68" transform="scale(0.015625)"/>
       <path d="M 2834 3397 
L 2834 2853 
Q 2591 2978 2328 3040 
Q 2066 3103 1784 3103 
Q 1356 3103 1142 2972 
Q 928 2841 928 2578 
Q 928 2378 1081 2264 
Q 1234 2150 1697 2047 
L 1894 2003 
Q 2506 1872 2764 1633 
Q 3022 1394 3022 966 
Q 3022 478 2636 193 
Q 2250 -91 1575 -91 
Q 1294 -91 989 -36 
Q 684 19 347 128 
L 347 722 
Q 666 556 975 473 
Q 1284 391 1588 391 
Q 1994 391 2212 530 
Q 2431 669 2431 922 
Q 2431 1156 2273 1281 
Q 2116 1406 1581 1522 
L 1381 1569 
Q 847 1681 609 1914 
Q 372 2147 372 2553 
Q 372 3047 722 3315 
Q 1072 3584 1716 3584 
Q 2034 3584 2315 3537 
Q 2597 3491 2834 3397 
z
" id="DejaVuSans-73" transform="scale(0.015625)"/>
      </defs>
      <use xlink:href="#DejaVuSans-45"/>
      <use x="63.183594" xlink:href="#DejaVuSans-70"/>
      <use x="126.660156" xlink:href="#DejaVuSans-6f"/>
      <use x="187.841797" xlink:href="#DejaVuSans-63"/>
      <use x="242.822266" xlink:href="#DejaVuSans-68"/>
      <use x="306.201172" xlink:href="#DejaVuSans-73"/>
     </g>
    </g>
   </g>
   <g id="matplotlib.axis_2">
    <g id="ytick_1">
     <g id="line2d_19">
      <path clip-path="url(#p34049b9568)" d="M 50.675 246.2 
L 411.7625 246.2 
" style="fill:none;stroke:#b0b0b0;stroke-linecap:square;stroke-width:0.8;"/>
     </g>
     <g id="line2d_20">
      <defs>
       <path d="M 0 0 
L -3.5 0 
" id="mfa9ef80e4b" style="stroke:#000000;stroke-width:0.8;"/>
      </defs>
      <g>
       <use style="stroke:#000000;stroke-width:0.8;" x="50.675" xlink:href="#mfa9ef80e4b" y="246.2"/>
      </g>
     </g>
     <g id="text_11">
      <!-- 70 -->
      <g transform="translate(30.95 249.999219)scale(0.1 -0.1)">
       <use xlink:href="#DejaVuSans-37"/>
       <use x="63.623047" xlink:href="#DejaVuSans-30"/>
      </g>
     </g>
    </g>
    <g id="ytick_2">
     <g id="line2d_21">
      <path clip-path="url(#p34049b9568)" d="M 50.675 209.633333 
L 411.7625 209.633333 
" style="fill:none;stroke:#b0b0b0;stroke-linecap:square;stroke-width:0.8;"/>
     </g>
     <g id="line2d_22">
      <g>
       <use style="stroke:#000000;stroke-width:0.8;" x="50.675" xlink:href="#mfa9ef80e4b" y="209.633333"/>
      </g>
     </g>
     <g id="text_12">
      <!-- 75 -->
      <g transform="translate(30.95 213.432552)scale(0.1 -0.1)">
       <use xlink:href="#DejaVuSans-37"/>
       <use x="63.623047" xlink:href="#DejaVuSans-35"/>
      </g>
     </g>
    </g>
    <g id="ytick_3">
     <g id="line2d_23">
      <path clip-path="url(#p34049b9568)" d="M 50.675 173.066667 
L 411.7625 173.066667 
" style="fill:none;stroke:#b0b0b0;stroke-linecap:square;stroke-width:0.8;"/>
     </g>
     <g id="line2d_24">
      <g>
       <use style="stroke:#000000;stroke-width:0.8;" x="50.675" xlink:href="#mfa9ef80e4b" y="173.066667"/>
      </g>
     </g>
     <g id="text_13">
      <!-- 80 -->
      <g transform="translate(30.95 176.865885)scale(0.1 -0.1)">
       <defs>
        <path d="M 2034 2216 
Q 1584 2216 1326 1975 
Q 1069 1734 1069 1313 
Q 1069 891 1326 650 
Q 1584 409 2034 409 
Q 2484 409 2743 651 
Q 3003 894 3003 1313 
Q 3003 1734 2745 1975 
Q 2488 2216 2034 2216 
z
M 1403 2484 
Q 997 2584 770 2862 
Q 544 3141 544 3541 
Q 544 4100 942 4425 
Q 1341 4750 2034 4750 
Q 2731 4750 3128 4425 
Q 3525 4100 3525 3541 
Q 3525 3141 3298 2862 
Q 3072 2584 2669 2484 
Q 3125 2378 3379 2068 
Q 3634 1759 3634 1313 
Q 3634 634 3220 271 
Q 2806 -91 2034 -91 
Q 1263 -91 848 271 
Q 434 634 434 1313 
Q 434 1759 690 2068 
Q 947 2378 1403 2484 
z
M 1172 3481 
Q 1172 3119 1398 2916 
Q 1625 2713 2034 2713 
Q 2441 2713 2670 2916 
Q 2900 3119 2900 3481 
Q 2900 3844 2670 4047 
Q 2441 4250 2034 4250 
Q 1625 4250 1398 4047 
Q 1172 3844 1172 3481 
z
" id="DejaVuSans-38" transform="scale(0.015625)"/>
       </defs>
       <use xlink:href="#DejaVuSans-38"/>
       <use x="63.623047" xlink:href="#DejaVuSans-30"/>
      </g>
     </g>
    </g>
    <g id="ytick_4">
     <g id="line2d_25">
      <path clip-path="url(#p34049b9568)" d="M 50.675 136.5 
L 411.7625 136.5 
" style="fill:none;stroke:#b0b0b0;stroke-linecap:square;stroke-width:0.8;"/>
     </g>
     <g id="line2d_26">
      <g>
       <use style="stroke:#000000;stroke-width:0.8;" x="50.675" xlink:href="#mfa9ef80e4b" y="136.5"/>
      </g>
     </g>
     <g id="text_14">
      <!-- 85 -->
      <g transform="translate(30.95 140.299219)scale(0.1 -0.1)">
       <use xlink:href="#DejaVuSans-38"/>
       <use x="63.623047" xlink:href="#DejaVuSans-35"/>
      </g>
     </g>
    </g>
    <g id="ytick_5">
     <g id="line2d_27">
      <path clip-path="url(#p34049b9568)" d="M 50.675 99.933333 
L 411.7625 99.933333 
" style="fill:none;stroke:#b0b0b0;stroke-linecap:square;stroke-width:0.8;"/>
     </g>
     <g id="line2d_28">
      <g>
       <use style="stroke:#000000;stroke-width:0.8;" x="50.675" xlink:href="#mfa9ef80e4b" y="99.933333"/>
      </g>
     </g>
     <g id="text_15">
      <!-- 90 -->
      <g transform="translate(30.95 103.732552)scale(0.1 -0.1)">
       <defs>
        <path d="M 703 97 
L 703 672 
Q 941 559 1184 500 
Q 1428 441 1663 441 
Q 2288 441 2617 861 
Q 2947 1281 2994 2138 
Q 2813 1869 2534 1725 
Q 2256 1581 1919 1581 
Q 1219 1581 811 2004 
Q 403 2428 403 3163 
Q 403 3881 828 4315 
Q 1253 4750 1959 4750 
Q 2769 4750 3195 4129 
Q 3622 3509 3622 2328 
Q 3622 1225 3098 567 
Q 2575 -91 1691 -91 
Q 1453 -91 1209 -44 
Q 966 3 703 97 
z
M 1959 2075 
Q 2384 2075 2632 2365 
Q 2881 2656 2881 3163 
Q 2881 3666 2632 3958 
Q 2384 4250 1959 4250 
Q 1534 4250 1286 3958 
Q 1038 3666 1038 3163 
Q 1038 2656 1286 2365 
Q 1534 2075 1959 2075 
z
" id="DejaVuSans-39" transform="scale(0.015625)"/>
       </defs>
       <use xlink:href="#DejaVuSans-39"/>
       <use x="63.623047" xlink:href="#DejaVuSans-30"/>
      </g>
     </g>
    </g>
    <g id="ytick_6">
     <g id="line2d_29">
      <path clip-path="url(#p34049b9568)" d="M 50.675 63.366667 
L 411.7625 63.366667 
" style="fill:none;stroke:#b0b0b0;stroke-linecap:square;stroke-width:0.8;"/>
     </g>
     <g id="line2d_30">
      <g>
       <use style="stroke:#000000;stroke-width:0.8;" x="50.675" xlink:href="#mfa9ef80e4b" y="63.366667"/>
      </g>
     </g>
     <g id="text_16">
      <!-- 95 -->
      <g transform="translate(30.95 67.165885)scale(0.1 -0.1)">
       <use xlink:href="#DejaVuSans-39"/>
       <use x="63.623047" xlink:href="#DejaVuSans-35"/>
      </g>
     </g>
    </g>
    <g id="ytick_7">
     <g id="line2d_31">
      <path clip-path="url(#p34049b9568)" d="M 50.675 26.8 
L 411.7625 26.8 
" style="fill:none;stroke:#b0b0b0;stroke-linecap:square;stroke-width:0.8;"/>
     </g>
     <g id="line2d_32">
      <g>
       <use style="stroke:#000000;stroke-width:0.8;" x="50.675" xlink:href="#mfa9ef80e4b" y="26.8"/>
      </g>
     </g>
     <g id="text_17">
      <!-- 100 -->
      <g transform="translate(24.5875 30.599219)scale(0.1 -0.1)">
       <use xlink:href="#DejaVuSans-31"/>
       <use x="63.623047" xlink:href="#DejaVuSans-30"/>
       <use x="127.246094" xlink:href="#DejaVuSans-30"/>
      </g>
     </g>
    </g>
    <g id="text_18">
     <!-- Accuracy % -->
     <g transform="translate(18.507813 165.667969)rotate(-90)scale(0.1 -0.1)">
      <defs>
       <path d="M 2188 4044 
L 1331 1722 
L 3047 1722 
L 2188 4044 
z
M 1831 4666 
L 2547 4666 
L 4325 0 
L 3669 0 
L 3244 1197 
L 1141 1197 
L 716 0 
L 50 0 
L 1831 4666 
z
" id="DejaVuSans-41" transform="scale(0.015625)"/>
       <path d="M 544 1381 
L 544 3500 
L 1119 3500 
L 1119 1403 
Q 1119 906 1312 657 
Q 1506 409 1894 409 
Q 2359 409 2629 706 
Q 2900 1003 2900 1516 
L 2900 3500 
L 3475 3500 
L 3475 0 
L 2900 0 
L 2900 538 
Q 2691 219 2414 64 
Q 2138 -91 1772 -91 
Q 1169 -91 856 284 
Q 544 659 544 1381 
z
M 1991 3584 
L 1991 3584 
z
" id="DejaVuSans-75" transform="scale(0.015625)"/>
       <path d="M 2631 2963 
Q 2534 3019 2420 3045 
Q 2306 3072 2169 3072 
Q 1681 3072 1420 2755 
Q 1159 2438 1159 1844 
L 1159 0 
L 581 0 
L 581 3500 
L 1159 3500 
L 1159 2956 
Q 1341 3275 1631 3429 
Q 1922 3584 2338 3584 
Q 2397 3584 2469 3576 
Q 2541 3569 2628 3553 
L 2631 2963 
z
" id="DejaVuSans-72" transform="scale(0.015625)"/>
       <path d="M 2194 1759 
Q 1497 1759 1228 1600 
Q 959 1441 959 1056 
Q 959 750 1161 570 
Q 1363 391 1709 391 
Q 2188 391 2477 730 
Q 2766 1069 2766 1631 
L 2766 1759 
L 2194 1759 
z
M 3341 1997 
L 3341 0 
L 2766 0 
L 2766 531 
Q 2569 213 2275 61 
Q 1981 -91 1556 -91 
Q 1019 -91 701 211 
Q 384 513 384 1019 
Q 384 1609 779 1909 
Q 1175 2209 1959 2209 
L 2766 2209 
L 2766 2266 
Q 2766 2663 2505 2880 
Q 2244 3097 1772 3097 
Q 1472 3097 1187 3025 
Q 903 2953 641 2809 
L 641 3341 
Q 956 3463 1253 3523 
Q 1550 3584 1831 3584 
Q 2591 3584 2966 3190 
Q 3341 2797 3341 1997 
z
" id="DejaVuSans-61" transform="scale(0.015625)"/>
       <path d="M 2059 -325 
Q 1816 -950 1584 -1140 
Q 1353 -1331 966 -1331 
L 506 -1331 
L 506 -850 
L 844 -850 
Q 1081 -850 1212 -737 
Q 1344 -625 1503 -206 
L 1606 56 
L 191 3500 
L 800 3500 
L 1894 763 
L 2988 3500 
L 3597 3500 
L 2059 -325 
z
" id="DejaVuSans-79" transform="scale(0.015625)"/>
       <path id="DejaVuSans-20" transform="scale(0.015625)"/>
       <path d="M 4653 2053 
Q 4381 2053 4226 1822 
Q 4072 1591 4072 1178 
Q 4072 772 4226 539 
Q 4381 306 4653 306 
Q 4919 306 5073 539 
Q 5228 772 5228 1178 
Q 5228 1588 5073 1820 
Q 4919 2053 4653 2053 
z
M 4653 2450 
Q 5147 2450 5437 2106 
Q 5728 1763 5728 1178 
Q 5728 594 5436 251 
Q 5144 -91 4653 -91 
Q 4153 -91 3862 251 
Q 3572 594 3572 1178 
Q 3572 1766 3864 2108 
Q 4156 2450 4653 2450 
z
M 1428 4353 
Q 1159 4353 1004 4120 
Q 850 3888 850 3481 
Q 850 3069 1003 2837 
Q 1156 2606 1428 2606 
Q 1700 2606 1854 2837 
Q 2009 3069 2009 3481 
Q 2009 3884 1853 4118 
Q 1697 4353 1428 4353 
z
M 4250 4750 
L 4750 4750 
L 1831 -91 
L 1331 -91 
L 4250 4750 
z
M 1428 4750 
Q 1922 4750 2215 4408 
Q 2509 4066 2509 3481 
Q 2509 2891 2217 2550 
Q 1925 2209 1428 2209 
Q 931 2209 642 2551 
Q 353 2894 353 3481 
Q 353 4063 643 4406 
Q 934 4750 1428 4750 
z
" id="DejaVuSans-25" transform="scale(0.015625)"/>
      </defs>
      <use xlink:href="#DejaVuSans-41"/>
      <use x="66.658203" xlink:href="#DejaVuSans-63"/>
      <use x="121.638672" xlink:href="#DejaVuSans-63"/>
      <use x="176.619141" xlink:href="#DejaVuSans-75"/>
      <use x="239.998047" xlink:href="#DejaVuSans-72"/>
      <use x="281.111328" xlink:href="#DejaVuSans-61"/>
      <use x="342.390625" xlink:href="#DejaVuSans-63"/>
      <use x="397.371094" xlink:href="#DejaVuSans-79"/>
      <use x="456.550781" xlink:href="#DejaVuSans-20"/>
      <use x="488.337891" xlink:href="#DejaVuSans-25"/>
     </g>
    </g>
   </g>
   <g id="line2d_33">
    <path clip-path="url(#p34049b9568)" d="M 52.157321 289 
L 52.480438 206.976156 
L 54.285875 177.113378 
L 56.091313 161.596922 
L 57.89675 154.405478 
L 59.702188 148.298844 
L 61.507625 144.118056 
L 63.313063 140.583278 
L 65.1185 138.547733 
L 68.729375 133.416211 
L 70.534813 132.465478 
L 72.34025 130.954056 
L 74.145688 128.845378 
L 75.951125 127.9434 
L 79.562 124.688967 
L 81.367438 123.933256 
L 83.172875 122.994711 
L 84.978313 123.153167 
L 88.589188 120.910411 
L 90.394625 120.556933 
L 92.200063 120.532556 
L 94.0055 119.240533 
L 95.810938 118.655467 
L 97.616375 117.777867 
L 99.421813 117.704733 
L 101.22725 117.095289 
L 103.032688 117.253744 
L 104.838125 116.4249 
L 108.449 115.644811 
L 112.059875 114.925667 
L 113.865313 114.169956 
L 115.67075 114.060256 
L 117.476188 114.194333 
L 119.281625 113.341111 
L 121.087063 113.072956 
L 122.8925 112.926689 
L 124.697938 112.439133 
L 126.503375 112.170978 
L 130.11425 111.915011 
L 131.919688 111.013033 
L 133.725125 111.098356 
L 135.530563 110.878956 
L 137.336 110.513289 
L 139.141437 110.757067 
L 140.946875 111.134922 
L 142.752313 109.855089 
L 144.55775 109.9526 
L 146.363188 109.586933 
L 148.168625 109.5138 
L 149.974063 108.928733 
L 151.7795 108.5265 
L 153.584938 108.514311 
L 155.390375 108.221778 
L 157.195813 108.599633 
L 159.00125 107.709844 
L 160.806688 108.014567 
L 162.612125 107.819544 
L 164.417563 107.234478 
L 166.223 107.076022 
L 168.028437 108.002378 
L 169.833875 106.905378 
L 171.639313 106.503144 
L 173.44475 106.283744 
L 175.250188 106.466578 
L 177.055625 105.796189 
L 178.861063 105.954644 
L 180.6665 105.393956 
L 182.471938 104.979533 
L 184.277375 105.759622 
L 186.082813 105.162367 
L 187.88825 105.284256 
L 189.693688 104.345711 
L 193.304563 104.431033 
L 195.11 104.236011 
L 198.720875 103.468111 
L 200.526313 103.321844 
L 202.33175 103.663133 
L 204.137188 103.2609 
L 205.942625 102.7124 
L 209.5535 102.968367 
L 211.358938 102.419867 
L 213.164375 102.102956 
L 214.969813 102.529567 
L 216.77525 101.981067 
L 218.580688 101.956689 
L 220.386125 101.530078 
L 222.191563 103.114633 
L 223.997 101.846989 
L 225.802438 101.005956 
L 227.607875 101.737289 
L 229.413313 101.420378 
L 231.21875 100.676856 
L 233.024188 100.786556 
L 234.829625 100.506211 
L 236.635063 100.993767 
L 238.4405 100.5184 
L 240.245938 100.774367 
L 242.051375 100.713422 
L 243.856813 100.140544 
L 245.66225 100.103978 
L 247.467688 100.859689 
L 249.273125 100.238056 
L 251.078563 100.481833 
L 252.884 99.872389 
L 256.494875 99.848011 
L 258.300313 99.628611 
L 261.911187 100.055222 
L 265.522063 99.470156 
L 267.3275 99.933333 
L 269.132938 99.7505 
L 270.938375 99.701744 
L 272.743812 99.299511 
L 276.354688 99.006978 
L 278.160125 99.360456 
L 279.965563 98.824144 
L 281.771 99.397022 
L 283.576437 99.372644 
L 285.381875 98.799767 
L 288.99275 98.751011 
L 292.603625 98.690067 
L 294.409063 98.202511 
L 296.2145 98.751011 
L 298.019938 98.519422 
L 299.825375 98.446289 
L 301.630813 99.238567 
L 303.43625 97.970922 
L 305.241688 97.7759 
L 308.852563 97.934356 
L 312.463437 98.190322 
L 314.268875 97.812467 
L 317.87975 97.983111 
L 319.685188 98.226889 
L 321.490625 97.739333 
L 323.296063 97.532122 
L 325.1015 97.471178 
L 326.906938 97.568689 
L 328.712375 97.008 
L 330.517812 97.483367 
L 332.32325 97.678389 
L 334.128688 97.1177 
L 335.934125 97.203022 
L 337.739563 98.068433 
L 339.545 97.434611 
L 341.350437 96.934867 
L 344.961313 97.020189 
L 346.76675 96.739844 
L 348.572188 97.166456 
L 352.183063 96.6789 
L 355.793938 96.995811 
L 357.599375 96.630144 
L 361.21025 96.849544 
L 363.015688 96.642333 
L 364.821125 97.032378 
L 366.626563 96.508256 
L 368.432 96.483878 
L 370.237437 96.142589 
L 372.042875 96.544822 
L 373.848313 95.911 
L 375.65375 96.2401 
L 379.264625 95.959756 
L 382.8755 96.1304 
L 384.680938 95.813489 
L 388.291812 95.825678 
L 390.09725 96.008511 
L 391.902688 95.484389 
L 393.708125 95.2528 
L 395.513563 95.606278 
L 399.124437 95.557522 
L 402.735313 95.923189 
L 404.54075 95.350311 
L 406.346188 95.3625 
L 409.957063 95.009022 
L 411.7625 95.508767 
L 411.7625 95.508767 
" style="fill:none;stroke:#1f77b4;stroke-linecap:square;stroke-width:1.5;"/>
   </g>
   <g id="line2d_34">
    <path clip-path="url(#p34049b9568)" d="M 52.183409 289 
L 52.480438 214.679533 
L 54.285875 185.718733 
L 56.091313 173.066667 
L 57.89675 166.045867 
L 59.702188 159.9758 
L 61.507625 156.392267 
L 63.313063 151.6386 
L 66.923938 147.396867 
L 68.729375 146.1536 
L 70.534813 144.690933 
L 72.34025 142.789467 
L 74.145688 142.058133 
L 75.951125 139.059667 
L 77.756563 140.4492 
L 79.562 138.767133 
L 83.172875 137.1582 
L 84.978313 137.3776 
L 86.78375 136.207467 
L 88.589188 135.695533 
L 90.394625 134.598533 
L 92.200063 135.476133 
L 94.0055 133.940333 
L 95.810938 134.232867 
L 97.616375 132.843333 
L 99.421813 133.720933 
L 101.22725 131.746333 
L 103.032688 131.161267 
L 104.838125 130.722467 
L 106.643563 129.991133 
L 108.449 130.283667 
L 110.254438 129.991133 
L 112.059875 128.967267 
L 113.865313 129.918 
L 115.67075 129.2598 
L 117.476188 128.821 
L 119.281625 127.870267 
L 121.087063 128.016533 
L 122.8925 130.503067 
L 124.697938 127.870267 
L 126.503375 128.6016 
L 128.308813 127.5046 
L 130.11425 128.455333 
L 131.919688 126.919533 
L 133.725125 127.5046 
L 135.530563 127.138933 
L 137.336 127.2852 
L 139.141437 127.2852 
L 140.946875 127.724 
L 142.752313 126.8464 
L 144.55775 126.1882 
L 146.363188 126.041933 
L 148.168625 125.53 
L 149.974063 126.334467 
L 151.7795 125.676267 
L 155.390375 125.3106 
L 157.195813 125.9688 
L 162.612125 124.8718 
L 164.417563 125.164333 
L 166.223 124.944933 
L 168.028437 126.4076 
L 169.833875 124.286733 
L 171.639313 124.6524 
L 173.44475 125.3106 
L 175.250188 124.067333 
L 178.861063 123.628533 
L 180.6665 124.359867 
L 182.471938 123.189733 
L 184.277375 123.262867 
L 186.082813 124.6524 
L 187.88825 124.2136 
L 189.693688 123.5554 
L 193.304563 122.0196 
L 195.11 123.189733 
L 196.915438 121.946467 
L 198.720875 122.6778 
L 200.526313 123.043467 
L 202.33175 123.7748 
L 204.137188 123.482267 
L 205.942625 123.5554 
L 207.748063 122.531533 
L 209.5535 123.043467 
L 211.358938 124.2136 
L 213.164375 124.140467 
L 214.969813 122.385267 
L 216.77525 123.262867 
L 220.386125 122.824067 
L 223.997 123.409133 
L 225.802438 123.043467 
L 227.607875 122.824067 
L 229.413313 121.434533 
L 233.024188 121.653933 
L 234.829625 122.4584 
L 236.635063 122.531533 
L 238.4405 121.507667 
L 240.245938 122.531533 
L 242.051375 121.215133 
L 243.856813 121.653933 
L 245.66225 121.434533 
L 247.467688 121.873333 
L 249.273125 121.507667 
L 251.078563 122.385267 
L 252.884 122.0196 
L 254.689438 121.434533 
L 256.494875 122.312133 
L 258.300313 122.239 
L 260.10575 121.8002 
L 261.911187 122.092733 
L 263.716625 121.507667 
L 265.522063 121.727067 
L 267.3275 121.068867 
L 269.132938 121.653933 
L 270.938375 120.849467 
L 272.743812 121.3614 
L 274.54925 120.7032 
L 276.354688 121.434533 
L 278.160125 121.068867 
L 279.965563 121.507667 
L 281.771 121.3614 
L 283.576437 121.3614 
L 285.381875 121.5808 
L 287.187313 121.507667 
L 288.99275 121.142 
L 292.603625 122.970333 
L 294.409063 121.5808 
L 296.2145 120.7032 
L 298.019938 120.630067 
L 299.825375 121.873333 
L 301.630813 121.507667 
L 303.43625 120.556933 
L 305.241688 120.630067 
L 307.047125 121.142 
L 308.852563 120.9226 
L 310.658 121.5808 
L 312.463437 121.3614 
L 314.268875 120.9226 
L 316.074313 120.9226 
L 317.87975 122.0196 
L 319.685188 122.0196 
L 321.490625 120.556933 
L 323.296063 120.556933 
L 325.1015 121.068867 
L 326.906938 120.995733 
L 328.712375 121.434533 
L 330.517812 120.337533 
L 332.32325 121.8002 
L 334.128688 121.068867 
L 335.934125 121.5808 
L 337.739563 120.995733 
L 339.545 120.556933 
L 341.350437 120.4838 
L 343.155875 120.191267 
L 344.961313 120.410667 
L 348.572188 121.434533 
L 352.183063 120.410667 
L 353.9885 120.337533 
L 355.793938 121.215133 
L 359.404812 120.9226 
L 361.21025 120.337533 
L 363.015688 120.556933 
L 364.821125 120.556933 
L 366.626563 120.995733 
L 368.432 120.410667 
L 370.237437 121.288267 
L 373.848313 120.337533 
L 375.65375 121.068867 
L 379.264625 120.556933 
L 381.070063 121.727067 
L 384.680938 120.630067 
L 386.486375 121.215133 
L 388.291812 120.410667 
L 390.09725 121.142 
L 393.708125 120.556933 
L 395.513563 120.7032 
L 397.319 121.068867 
L 399.124437 121.873333 
L 402.735313 120.556933 
L 404.54075 120.995733 
L 406.346188 121.288267 
L 408.151625 121.727067 
L 409.957063 120.630067 
L 411.7625 121.288267 
L 411.7625 121.288267 
" style="fill:none;stroke:#ff7f0e;stroke-linecap:square;stroke-width:1.5;"/>
   </g>
   <g id="patch_3">
    <path d="M 50.675 246.2 
L 50.675 26.8 
" style="fill:none;stroke:#000000;stroke-linecap:square;stroke-linejoin:miter;stroke-width:0.8;"/>
   </g>
   <g id="patch_4">
    <path d="M 411.7625 246.2 
L 411.7625 26.8 
" style="fill:none;stroke:#000000;stroke-linecap:square;stroke-linejoin:miter;stroke-width:0.8;"/>
   </g>
   <g id="patch_5">
    <path d="M 50.675 246.2 
L 411.7625 246.2 
" style="fill:none;stroke:#000000;stroke-linecap:square;stroke-linejoin:miter;stroke-width:0.8;"/>
   </g>
   <g id="patch_6">
    <path d="M 50.675 26.8 
L 411.7625 26.8 
" style="fill:none;stroke:#000000;stroke-linecap:square;stroke-linejoin:miter;stroke-width:0.8;"/>
   </g>
   <g id="text_19">
    <!-- model: l1_20, step: 100, epochs: 200, batch: 256 -->
    <g transform="translate(83.586875 20.8)scale(0.12 -0.12)">
     <defs>
      <path d="M 3328 2828 
Q 3544 3216 3844 3400 
Q 4144 3584 4550 3584 
Q 5097 3584 5394 3201 
Q 5691 2819 5691 2113 
L 5691 0 
L 5113 0 
L 5113 2094 
Q 5113 2597 4934 2840 
Q 4756 3084 4391 3084 
Q 3944 3084 3684 2787 
Q 3425 2491 3425 1978 
L 3425 0 
L 2847 0 
L 2847 2094 
Q 2847 2600 2669 2842 
Q 2491 3084 2119 3084 
Q 1678 3084 1418 2786 
Q 1159 2488 1159 1978 
L 1159 0 
L 581 0 
L 581 3500 
L 1159 3500 
L 1159 2956 
Q 1356 3278 1631 3431 
Q 1906 3584 2284 3584 
Q 2666 3584 2933 3390 
Q 3200 3197 3328 2828 
z
" id="DejaVuSans-6d" transform="scale(0.015625)"/>
      <path d="M 2906 2969 
L 2906 4863 
L 3481 4863 
L 3481 0 
L 2906 0 
L 2906 525 
Q 2725 213 2448 61 
Q 2172 -91 1784 -91 
Q 1150 -91 751 415 
Q 353 922 353 1747 
Q 353 2572 751 3078 
Q 1150 3584 1784 3584 
Q 2172 3584 2448 3432 
Q 2725 3281 2906 2969 
z
M 947 1747 
Q 947 1113 1208 752 
Q 1469 391 1925 391 
Q 2381 391 2643 752 
Q 2906 1113 2906 1747 
Q 2906 2381 2643 2742 
Q 2381 3103 1925 3103 
Q 1469 3103 1208 2742 
Q 947 2381 947 1747 
z
" id="DejaVuSans-64" transform="scale(0.015625)"/>
      <path d="M 3597 1894 
L 3597 1613 
L 953 1613 
Q 991 1019 1311 708 
Q 1631 397 2203 397 
Q 2534 397 2845 478 
Q 3156 559 3463 722 
L 3463 178 
Q 3153 47 2828 -22 
Q 2503 -91 2169 -91 
Q 1331 -91 842 396 
Q 353 884 353 1716 
Q 353 2575 817 3079 
Q 1281 3584 2069 3584 
Q 2775 3584 3186 3129 
Q 3597 2675 3597 1894 
z
M 3022 2063 
Q 3016 2534 2758 2815 
Q 2500 3097 2075 3097 
Q 1594 3097 1305 2825 
Q 1016 2553 972 2059 
L 3022 2063 
z
" id="DejaVuSans-65" transform="scale(0.015625)"/>
      <path d="M 603 4863 
L 1178 4863 
L 1178 0 
L 603 0 
L 603 4863 
z
" id="DejaVuSans-6c" transform="scale(0.015625)"/>
      <path d="M 750 794 
L 1409 794 
L 1409 0 
L 750 0 
L 750 794 
z
M 750 3309 
L 1409 3309 
L 1409 2516 
L 750 2516 
L 750 3309 
z
" id="DejaVuSans-3a" transform="scale(0.015625)"/>
      <path d="M 3263 -1063 
L 3263 -1509 
L -63 -1509 
L -63 -1063 
L 3263 -1063 
z
" id="DejaVuSans-5f" transform="scale(0.015625)"/>
      <path d="M 750 794 
L 1409 794 
L 1409 256 
L 897 -744 
L 494 -744 
L 750 256 
L 750 794 
z
" id="DejaVuSans-2c" transform="scale(0.015625)"/>
      <path d="M 1172 4494 
L 1172 3500 
L 2356 3500 
L 2356 3053 
L 1172 3053 
L 1172 1153 
Q 1172 725 1289 603 
Q 1406 481 1766 481 
L 2356 481 
L 2356 0 
L 1766 0 
Q 1100 0 847 248 
Q 594 497 594 1153 
L 594 3053 
L 172 3053 
L 172 3500 
L 594 3500 
L 594 4494 
L 1172 4494 
z
" id="DejaVuSans-74" transform="scale(0.015625)"/>
      <path d="M 3116 1747 
Q 3116 2381 2855 2742 
Q 2594 3103 2138 3103 
Q 1681 3103 1420 2742 
Q 1159 2381 1159 1747 
Q 1159 1113 1420 752 
Q 1681 391 2138 391 
Q 2594 391 2855 752 
Q 3116 1113 3116 1747 
z
M 1159 2969 
Q 1341 3281 1617 3432 
Q 1894 3584 2278 3584 
Q 2916 3584 3314 3078 
Q 3713 2572 3713 1747 
Q 3713 922 3314 415 
Q 2916 -91 2278 -91 
Q 1894 -91 1617 61 
Q 1341 213 1159 525 
L 1159 0 
L 581 0 
L 581 4863 
L 1159 4863 
L 1159 2969 
z
" id="DejaVuSans-62" transform="scale(0.015625)"/>
      <path d="M 2113 2584 
Q 1688 2584 1439 2293 
Q 1191 2003 1191 1497 
Q 1191 994 1439 701 
Q 1688 409 2113 409 
Q 2538 409 2786 701 
Q 3034 994 3034 1497 
Q 3034 2003 2786 2293 
Q 2538 2584 2113 2584 
z
M 3366 4563 
L 3366 3988 
Q 3128 4100 2886 4159 
Q 2644 4219 2406 4219 
Q 1781 4219 1451 3797 
Q 1122 3375 1075 2522 
Q 1259 2794 1537 2939 
Q 1816 3084 2150 3084 
Q 2853 3084 3261 2657 
Q 3669 2231 3669 1497 
Q 3669 778 3244 343 
Q 2819 -91 2113 -91 
Q 1303 -91 875 529 
Q 447 1150 447 2328 
Q 447 3434 972 4092 
Q 1497 4750 2381 4750 
Q 2619 4750 2861 4703 
Q 3103 4656 3366 4563 
z
" id="DejaVuSans-36" transform="scale(0.015625)"/>
     </defs>
     <use xlink:href="#DejaVuSans-6d"/>
     <use x="97.412109" xlink:href="#DejaVuSans-6f"/>
     <use x="158.59375" xlink:href="#DejaVuSans-64"/>
     <use x="222.070312" xlink:href="#DejaVuSans-65"/>
     <use x="283.59375" xlink:href="#DejaVuSans-6c"/>
     <use x="311.376953" xlink:href="#DejaVuSans-3a"/>
     <use x="345.068359" xlink:href="#DejaVuSans-20"/>
     <use x="376.855469" xlink:href="#DejaVuSans-6c"/>
     <use x="404.638672" xlink:href="#DejaVuSans-31"/>
     <use x="468.261719" xlink:href="#DejaVuSans-5f"/>
     <use x="518.261719" xlink:href="#DejaVuSans-32"/>
     <use x="581.884766" xlink:href="#DejaVuSans-30"/>
     <use x="645.507812" xlink:href="#DejaVuSans-2c"/>
     <use x="677.294922" xlink:href="#DejaVuSans-20"/>
     <use x="709.082031" xlink:href="#DejaVuSans-73"/>
     <use x="761.181641" xlink:href="#DejaVuSans-74"/>
     <use x="800.390625" xlink:href="#DejaVuSans-65"/>
     <use x="861.914062" xlink:href="#DejaVuSans-70"/>
     <use x="925.390625" xlink:href="#DejaVuSans-3a"/>
     <use x="959.082031" xlink:href="#DejaVuSans-20"/>
     <use x="990.869141" xlink:href="#DejaVuSans-31"/>
     <use x="1054.492188" xlink:href="#DejaVuSans-30"/>
     <use x="1118.115234" xlink:href="#DejaVuSans-30"/>
     <use x="1181.738281" xlink:href="#DejaVuSans-2c"/>
     <use x="1213.525391" xlink:href="#DejaVuSans-20"/>
     <use x="1245.3125" xlink:href="#DejaVuSans-65"/>
     <use x="1306.835938" xlink:href="#DejaVuSans-70"/>
     <use x="1370.3125" xlink:href="#DejaVuSans-6f"/>
     <use x="1431.494141" xlink:href="#DejaVuSans-63"/>
     <use x="1486.474609" xlink:href="#DejaVuSans-68"/>
     <use x="1549.853516" xlink:href="#DejaVuSans-73"/>
     <use x="1601.953125" xlink:href="#DejaVuSans-3a"/>
     <use x="1635.644531" xlink:href="#DejaVuSans-20"/>
     <use x="1667.431641" xlink:href="#DejaVuSans-32"/>
     <use x="1731.054688" xlink:href="#DejaVuSans-30"/>
     <use x="1794.677734" xlink:href="#DejaVuSans-30"/>
     <use x="1858.300781" xlink:href="#DejaVuSans-2c"/>
     <use x="1890.087891" xlink:href="#DejaVuSans-20"/>
     <use x="1921.875" xlink:href="#DejaVuSans-62"/>
     <use x="1985.351562" xlink:href="#DejaVuSans-61"/>
     <use x="2046.630859" xlink:href="#DejaVuSans-74"/>
     <use x="2085.839844" xlink:href="#DejaVuSans-63"/>
     <use x="2140.820312" xlink:href="#DejaVuSans-68"/>
     <use x="2204.199219" xlink:href="#DejaVuSans-3a"/>
     <use x="2237.890625" xlink:href="#DejaVuSans-20"/>
     <use x="2269.677734" xlink:href="#DejaVuSans-32"/>
     <use x="2333.300781" xlink:href="#DejaVuSans-35"/>
     <use x="2396.923828" xlink:href="#DejaVuSans-36"/>
    </g>
   </g>
   <g id="legend_1">
    <g id="patch_7">
     <path d="M 329.175 64.15625 
L 404.7625 64.15625 
Q 406.7625 64.15625 406.7625 62.15625 
L 406.7625 33.8 
Q 406.7625 31.8 404.7625 31.8 
L 329.175 31.8 
Q 327.175 31.8 327.175 33.8 
L 327.175 62.15625 
Q 327.175 64.15625 329.175 64.15625 
z
" style="fill:#ffffff;opacity:0.8;stroke:#cccccc;stroke-linejoin:miter;"/>
    </g>
    <g id="line2d_35">
     <path d="M 331.175 39.898437 
L 351.175 39.898437 
" style="fill:none;stroke:#1f77b4;stroke-linecap:square;stroke-width:1.5;"/>
    </g>
    <g id="line2d_36"/>
    <g id="text_20">
     <!-- Train Set -->
     <g transform="translate(359.175 43.398437)scale(0.1 -0.1)">
      <defs>
       <path d="M -19 4666 
L 3928 4666 
L 3928 4134 
L 2272 4134 
L 2272 0 
L 1638 0 
L 1638 4134 
L -19 4134 
L -19 4666 
z
" id="DejaVuSans-54" transform="scale(0.015625)"/>
       <path d="M 603 3500 
L 1178 3500 
L 1178 0 
L 603 0 
L 603 3500 
z
M 603 4863 
L 1178 4863 
L 1178 4134 
L 603 4134 
L 603 4863 
z
" id="DejaVuSans-69" transform="scale(0.015625)"/>
       <path d="M 3513 2113 
L 3513 0 
L 2938 0 
L 2938 2094 
Q 2938 2591 2744 2837 
Q 2550 3084 2163 3084 
Q 1697 3084 1428 2787 
Q 1159 2491 1159 1978 
L 1159 0 
L 581 0 
L 581 3500 
L 1159 3500 
L 1159 2956 
Q 1366 3272 1645 3428 
Q 1925 3584 2291 3584 
Q 2894 3584 3203 3211 
Q 3513 2838 3513 2113 
z
" id="DejaVuSans-6e" transform="scale(0.015625)"/>
       <path d="M 3425 4513 
L 3425 3897 
Q 3066 4069 2747 4153 
Q 2428 4238 2131 4238 
Q 1616 4238 1336 4038 
Q 1056 3838 1056 3469 
Q 1056 3159 1242 3001 
Q 1428 2844 1947 2747 
L 2328 2669 
Q 3034 2534 3370 2195 
Q 3706 1856 3706 1288 
Q 3706 609 3251 259 
Q 2797 -91 1919 -91 
Q 1588 -91 1214 -16 
Q 841 59 441 206 
L 441 856 
Q 825 641 1194 531 
Q 1563 422 1919 422 
Q 2459 422 2753 634 
Q 3047 847 3047 1241 
Q 3047 1584 2836 1778 
Q 2625 1972 2144 2069 
L 1759 2144 
Q 1053 2284 737 2584 
Q 422 2884 422 3419 
Q 422 4038 858 4394 
Q 1294 4750 2059 4750 
Q 2388 4750 2728 4690 
Q 3069 4631 3425 4513 
z
" id="DejaVuSans-53" transform="scale(0.015625)"/>
      </defs>
      <use xlink:href="#DejaVuSans-54"/>
      <use x="46.333984" xlink:href="#DejaVuSans-72"/>
      <use x="87.447266" xlink:href="#DejaVuSans-61"/>
      <use x="148.726562" xlink:href="#DejaVuSans-69"/>
      <use x="176.509766" xlink:href="#DejaVuSans-6e"/>
      <use x="239.888672" xlink:href="#DejaVuSans-20"/>
      <use x="271.675781" xlink:href="#DejaVuSans-53"/>
      <use x="335.152344" xlink:href="#DejaVuSans-65"/>
      <use x="396.675781" xlink:href="#DejaVuSans-74"/>
     </g>
    </g>
    <g id="line2d_37">
     <path d="M 331.175 54.576562 
L 351.175 54.576562 
" style="fill:none;stroke:#ff7f0e;stroke-linecap:square;stroke-width:1.5;"/>
    </g>
    <g id="line2d_38"/>
    <g id="text_21">
     <!-- Test Set -->
     <g transform="translate(359.175 58.076562)scale(0.1 -0.1)">
      <use xlink:href="#DejaVuSans-54"/>
      <use x="44.083984" xlink:href="#DejaVuSans-65"/>
      <use x="105.607422" xlink:href="#DejaVuSans-73"/>
      <use x="157.707031" xlink:href="#DejaVuSans-74"/>
      <use x="196.916016" xlink:href="#DejaVuSans-20"/>
      <use x="228.703125" xlink:href="#DejaVuSans-53"/>
      <use x="292.179688" xlink:href="#DejaVuSans-65"/>
      <use x="353.703125" xlink:href="#DejaVuSans-74"/>
     </g>
    </g>
   </g>
  </g>
 </g>
 <defs>
  <clipPath id="p34049b9568">
   <rect height="219.4" width="361.0875" x="50.675" y="26.8"/>
  </clipPath>
 </defs>
</svg>
